<svg width="441" height="116" viewBox="0 0 441 116" fill="none" xmlns="http://www.w3.org/2000/svg">
<g filter="url(#filter0_d_4_12)">
<path d="M4.60938 105V3H36.2594C44.7594 3 51.9594 5.95 57.8594 11.85C63.7594 17.75 66.7094 24.95 66.7094 33.45C66.7094 41.95 63.7594 49.15 57.8594 55.05C51.9594 60.95 44.7594 63.9 36.2594 63.9H16.6094V105H4.60938ZM35.8094 13.95H16.6094V52.95H35.8094C41.0094 52.95 45.4594 51.05 49.1594 47.25C52.9594 43.35 54.8594 38.75 54.8594 33.45C54.8594 28.15 52.9594 23.6 49.1594 19.8C45.4594 15.9 41.0094 13.95 35.8094 13.95ZM124.578 105H113.178V45L111.678 30L121.578 29.25L124.578 47.25C127.578 41.05 131.378 36.35 135.978 33.15C140.578 29.95 145.578 28.35 150.978 28.35L151.728 39.75C134.128 41.15 125.078 54.6 124.578 80.1V105ZM223.962 107.1C214.962 107.1 207.512 103.95 201.612 97.65C195.812 91.35 192.912 82.1 192.912 69.9C192.912 57.7 196.362 47.65 203.262 39.75C210.162 31.85 219.112 27.9 230.112 27.9C237.112 27.9 242.762 30.05 247.062 34.35C251.362 38.55 253.512 43.85 253.512 50.25C253.512 56.55 250.212 62.35 243.612 67.65C237.112 72.95 227.612 75.6 215.112 75.6C211.812 75.6 208.312 75.45 204.612 75.15C205.312 82.25 207.462 87.65 211.062 91.35C214.762 95.05 219.212 96.9 224.412 96.9C233.112 96.9 240.362 94.2 246.162 88.8L251.562 96.15C243.962 103.45 234.762 107.1 223.962 107.1ZM229.662 38.1C222.762 38.1 217.012 40.55 212.412 45.45C207.912 50.35 205.262 56.85 204.462 64.95C207.762 65.45 211.412 65.7 215.412 65.7C224.012 65.7 230.612 64.1 235.212 60.9C239.812 57.7 242.112 54 242.112 49.8C242.112 46.7 240.962 44 238.662 41.7C236.462 39.3 233.462 38.1 229.662 38.1ZM303.068 -7.15256e-06H314.468V88.5C314.468 94 316.718 96.75 321.218 96.75C324.118 96.75 326.968 95.75 329.768 93.75L334.268 101.85C328.768 105.35 323.568 107.1 318.668 107.1C313.768 107.1 309.918 105.75 307.118 103.05C304.418 100.35 303.068 95.5 303.068 88.5V-7.15256e-06ZM400.373 107.1C391.773 107.1 384.723 103.85 379.223 97.35C373.723 90.85 370.973 81.5 370.973 69.3C370.973 57 374.423 47.05 381.323 39.45C388.323 31.75 396.973 27.9 407.273 27.9C417.673 27.9 427.023 30.8 435.323 36.6V90L436.823 105L426.923 105.75L424.373 92.25C418.773 102.15 410.773 107.1 400.373 107.1ZM382.373 69C382.373 78 384.273 84.9 388.073 89.7C391.873 94.5 396.723 96.9 402.623 96.9C408.623 96.9 413.673 93.95 417.773 88.05C421.873 82.05 423.923 73.6 423.923 62.7V41.85C418.923 39.35 413.573 38.1 407.873 38.1C400.473 38.1 394.373 41 389.573 46.8C384.773 52.5 382.373 59.9 382.373 69Z" fill="black"/>
<path d="M4.60938 105H3.60938V106H4.60938V105ZM4.60938 3V2H3.60938V3H4.60938ZM57.8594 11.85L58.5665 11.1429L58.5665 11.1429L57.8594 11.85ZM57.8594 55.05L58.5665 55.7571L58.5665 55.7571L57.8594 55.05ZM16.6094 63.9V62.9H15.6094V63.9H16.6094ZM16.6094 105V106H17.6094V105H16.6094ZM16.6094 13.95V12.95H15.6094V13.95H16.6094ZM16.6094 52.95H15.6094V53.95H16.6094V52.95ZM49.1594 47.25L48.4431 46.5521L48.4429 46.5524L49.1594 47.25ZM49.1594 19.8L48.4339 20.4883L48.443 20.4978L48.4523 20.5071L49.1594 19.8ZM5.60938 105V3H3.60938V105H5.60938ZM4.60938 4H36.2594V2H4.60938V4ZM36.2594 4C44.4997 4 51.4437 6.84854 57.1523 12.5571L58.5665 11.1429C52.475 5.05145 45.019 2 36.2594 2V4ZM57.1523 12.5571C62.8608 18.2657 65.7094 25.2096 65.7094 33.45H67.7094C67.7094 24.6903 64.6579 17.2343 58.5665 11.1429L57.1523 12.5571ZM65.7094 33.45C65.7094 41.6903 62.8608 48.6343 57.1523 54.3429L58.5665 55.7571C64.6579 49.6657 67.7094 42.2096 67.7094 33.45H65.7094ZM57.1523 54.3429C51.4437 60.0515 44.4997 62.9 36.2594 62.9V64.9C45.019 64.9 52.475 61.8485 58.5665 55.7571L57.1523 54.3429ZM36.2594 62.9H16.6094V64.9H36.2594V62.9ZM15.6094 63.9V105H17.6094V63.9H15.6094ZM16.6094 104H4.60938V106H16.6094V104ZM35.8094 12.95H16.6094V14.95H35.8094V12.95ZM15.6094 13.95V52.95H17.6094V13.95H15.6094ZM16.6094 53.95H35.8094V51.95H16.6094V53.95ZM35.8094 53.95C41.2852 53.95 45.9918 51.9366 49.8758 47.9476L48.4429 46.5524C44.9269 50.1634 40.7335 51.95 35.8094 51.95V53.95ZM49.8756 47.9479C53.852 43.8668 55.8594 39.0186 55.8594 33.45H53.8594C53.8594 38.4814 52.0668 42.8332 48.4431 46.5521L49.8756 47.9479ZM55.8594 33.45C55.8594 27.8806 53.8511 23.0775 49.8665 19.0929L48.4523 20.5071C52.0677 24.1225 53.8594 28.4193 53.8594 33.45H55.8594ZM49.8848 19.1117C46.0032 15.0203 41.294 12.95 35.8094 12.95V14.95C40.7247 14.95 44.9155 16.7797 48.4339 20.4883L49.8848 19.1117ZM124.578 105V106H125.578V105H124.578ZM113.178 105H112.178V106H113.178V105ZM113.178 45H114.178V44.9501L114.173 44.9005L113.178 45ZM111.678 30L111.602 29.0029L110.581 29.0802L110.683 30.0995L111.678 30ZM121.578 29.25L122.564 29.0856L122.414 28.1838L121.502 28.2529L121.578 29.25ZM124.578 47.25L123.591 47.4144L124.108 50.5161L125.478 47.6856L124.578 47.25ZM150.978 28.35L151.976 28.2843L151.914 27.35H150.978V28.35ZM151.728 39.75L151.807 40.7468L152.79 40.6686L152.726 39.6843L151.728 39.75ZM124.578 80.1L123.578 80.0804L123.578 80.0902V80.1H124.578ZM124.578 104H113.178V106H124.578V104ZM114.178 105V45H112.178V105H114.178ZM114.173 44.9005L112.673 29.9005L110.683 30.0995L112.183 45.0995L114.173 44.9005ZM111.753 30.9971L121.653 30.2471L121.502 28.2529L111.602 29.0029L111.753 30.9971ZM120.591 29.4144L123.591 47.4144L125.564 47.0856L122.564 29.0856L120.591 29.4144ZM125.478 47.6856C128.42 41.605 132.119 37.0527 136.549 33.9709L135.407 32.3291C130.637 35.6472 126.735 40.495 123.678 46.8144L125.478 47.6856ZM136.549 33.9709C140.988 30.8828 145.79 29.35 150.978 29.35V27.35C145.366 27.35 140.168 29.0172 135.407 32.3291L136.549 33.9709ZM149.98 28.4156L150.73 39.8156L152.726 39.6843L151.976 28.2843L149.98 28.4156ZM151.648 38.7531C142.576 39.4749 135.622 43.3266 130.911 50.3292C126.233 57.2808 123.83 67.2393 123.578 80.0804L125.578 80.1196C125.826 67.4607 128.197 57.9442 132.57 51.4457C136.908 44.9984 143.28 41.4251 151.807 40.7468L151.648 38.7531ZM123.578 80.1V105H125.578V80.1H123.578ZM201.612 97.65L200.876 98.3273L200.882 98.3336L201.612 97.65ZM203.262 39.75L202.509 39.0922L202.509 39.0922L203.262 39.75ZM247.062 34.35L246.355 35.0572L246.363 35.0654L247.062 34.35ZM243.612 67.65L242.986 66.8703L242.98 66.875L243.612 67.65ZM204.612 75.15L204.693 74.1533L203.499 74.0565L203.617 75.2481L204.612 75.15ZM211.062 91.35L210.345 92.0474L210.355 92.0571L211.062 91.35ZM246.162 88.8L246.968 88.2079L246.303 87.3026L245.481 88.0681L246.162 88.8ZM251.562 96.15L252.255 96.8712L252.887 96.2641L252.368 95.5579L251.562 96.15ZM212.412 45.45L211.683 44.7655L211.676 44.7736L212.412 45.45ZM204.462 64.95L203.467 64.8517L203.374 65.7965L204.312 65.9387L204.462 64.95ZM235.212 60.9L235.783 61.7209L235.783 61.7209L235.212 60.9ZM238.662 41.7L237.925 42.3757L237.94 42.3917L237.955 42.4071L238.662 41.7ZM223.962 106.1C215.225 106.1 208.044 103.055 202.342 96.9664L200.882 98.3336C206.98 104.845 214.699 108.1 223.962 108.1V106.1ZM202.348 96.9727C196.778 90.9228 193.912 81.9552 193.912 69.9H191.912C191.912 82.2448 194.846 91.7772 200.876 98.3273L202.348 96.9727ZM193.912 69.9C193.912 57.9001 197.3 48.0964 204.015 40.4078L202.509 39.0922C195.424 47.2036 191.912 57.4999 191.912 69.9H193.912ZM204.015 40.4078C210.715 32.737 219.385 28.9 230.112 28.9V26.9C218.839 26.9 209.609 30.963 202.509 39.0922L204.015 40.4078ZM230.112 28.9C236.89 28.9 242.271 30.9733 246.355 35.0571L247.769 33.6429C243.253 29.1267 237.334 26.9 230.112 26.9V28.9ZM246.363 35.0654C250.457 39.0641 252.512 44.0999 252.512 50.25H254.512C254.512 43.6001 252.267 38.0359 247.761 33.6346L246.363 35.0654ZM252.512 50.25C252.512 56.1508 249.436 61.6904 242.986 66.8703L244.238 68.4297C250.988 63.0096 254.512 56.9492 254.512 50.25H252.512ZM242.98 66.875C236.728 71.9731 227.491 74.6 215.112 74.6V76.6C227.734 76.6 237.496 73.9269 244.244 68.425L242.98 66.875ZM215.112 74.6C211.842 74.6 208.369 74.4514 204.693 74.1533L204.531 76.1467C208.255 76.4486 211.782 76.6 215.112 76.6V74.6ZM203.617 75.2481C204.331 82.4885 206.537 88.1327 210.345 92.0474L211.779 90.6526C208.388 87.1673 206.293 82.0115 205.607 75.0519L203.617 75.2481ZM210.355 92.0571C214.241 95.9433 218.945 97.9 224.412 97.9V95.9C219.479 95.9 215.283 94.1567 211.769 90.6429L210.355 92.0571ZM224.412 97.9C233.338 97.9 240.84 95.1217 246.844 89.5319L245.481 88.0681C239.885 93.2783 232.886 95.9 224.412 95.9V97.9ZM245.356 89.3921L250.756 96.7421L252.368 95.5579L246.968 88.2079L245.356 89.3921ZM250.869 95.4288C243.461 102.545 234.511 106.1 223.962 106.1V108.1C235.013 108.1 244.464 104.355 252.255 96.8712L250.869 95.4288ZM229.662 37.1C222.494 37.1 216.478 39.6582 211.683 44.7656L213.141 46.1344C217.547 41.4418 223.03 39.1 229.662 39.1V37.1ZM211.676 44.7736C206.999 49.8662 204.283 56.5853 203.467 64.8517L205.457 65.0483C206.241 57.1147 208.825 50.8338 213.149 46.1264L211.676 44.7736ZM204.312 65.9387C207.67 66.4475 211.371 66.7 215.412 66.7V64.7C211.453 64.7 207.854 64.4525 204.612 63.9613L204.312 65.9387ZM215.412 66.7C224.114 66.7 230.948 65.0846 235.783 61.7209L234.641 60.0791C230.276 63.1154 223.91 64.7 215.412 64.7V66.7ZM235.783 61.7209C240.553 58.4026 243.112 54.4315 243.112 49.8H241.112C241.112 53.5684 239.071 56.9974 234.641 60.0791L235.783 61.7209ZM243.112 49.8C243.112 46.4206 241.846 43.4701 239.369 40.9929L237.955 42.4071C240.078 44.5298 241.112 46.9794 241.112 49.8H243.112ZM239.399 41.0243C236.978 38.3826 233.691 37.1 229.662 37.1V39.1C233.233 39.1 235.946 40.2174 237.925 42.3757L239.399 41.0243ZM303.068 -7.15256e-06V-1.00001H302.068V-7.15256e-06H303.068ZM314.468 -7.15256e-06H315.468V-1.00001H314.468V-7.15256e-06ZM329.768 93.75L330.643 93.2644L330.099 92.2852L329.187 92.9363L329.768 93.75ZM334.268 101.85L334.805 102.694L335.6 102.188L335.143 101.364L334.268 101.85ZM307.118 103.05L306.411 103.757L306.418 103.764L306.424 103.77L307.118 103.05ZM303.068 0.999993H314.468V-1.00001H303.068V0.999993ZM313.468 -7.15256e-06V88.5H315.468V-7.15256e-06H313.468ZM313.468 88.5C313.468 91.3609 314.049 93.6922 315.382 95.3207C316.746 96.9877 318.755 97.75 321.218 97.75V95.75C319.181 95.75 317.816 95.1373 316.93 94.0543C316.012 92.9328 315.468 91.1391 315.468 88.5H313.468ZM321.218 97.75C324.363 97.75 327.412 96.6617 330.35 94.5637L329.187 92.9363C326.524 94.8383 323.873 95.75 321.218 95.75V97.75ZM328.894 94.2356L333.394 102.336L335.143 101.364L330.643 93.2644L328.894 94.2356ZM333.731 101.006C328.34 104.437 323.325 106.1 318.668 106.1V108.1C323.812 108.1 329.197 106.263 334.805 102.694L333.731 101.006ZM318.668 106.1C313.957 106.1 310.381 104.807 307.812 102.33L306.424 103.77C309.456 106.693 313.58 108.1 318.668 108.1V106.1ZM307.825 102.343C305.418 99.9358 304.068 95.4349 304.068 88.5H302.068C302.068 95.5651 303.418 100.764 306.411 103.757L307.825 102.343ZM304.068 88.5V-7.15256e-06H302.068V88.5H304.068ZM379.223 97.35L379.986 96.7041L379.223 97.35ZM381.323 39.45L380.583 38.7773L380.582 38.7778L381.323 39.45ZM435.323 36.6H436.323V36.0788L435.895 35.7803L435.323 36.6ZM435.323 90H434.323V90.0499L434.328 90.0995L435.323 90ZM436.823 105L436.898 105.997L437.92 105.92L437.818 104.9L436.823 105ZM426.923 105.75L425.94 105.936L426.106 106.815L426.998 106.747L426.923 105.75ZM424.373 92.25L425.355 92.0644L424.848 89.3786L423.502 91.7577L424.373 92.25ZM388.073 89.7L388.857 89.0793L388.857 89.0793L388.073 89.7ZM417.773 88.05L418.594 88.6207L418.598 88.6142L417.773 88.05ZM423.923 41.85H424.923V41.232L424.37 40.9556L423.923 41.85ZM389.573 46.8L390.338 47.4442L390.343 47.4376L389.573 46.8ZM400.373 106.1C392.063 106.1 385.294 102.977 379.986 96.7041L378.459 97.9959C384.151 104.723 391.482 108.1 400.373 108.1V106.1ZM379.986 96.7041C374.693 90.4488 371.973 81.364 371.973 69.3H369.973C369.973 81.636 372.752 91.2512 378.459 97.9959L379.986 96.7041ZM371.973 69.3C371.973 57.1965 375.362 47.503 382.063 40.1222L380.582 38.7778C373.483 46.597 369.973 56.8035 369.973 69.3H371.973ZM382.063 40.1227C388.875 32.6287 397.258 28.9 407.273 28.9V26.9C396.688 26.9 387.77 30.8713 380.583 38.7773L382.063 40.1227ZM407.273 28.9C417.474 28.9 426.623 31.7404 434.75 37.4197L435.895 35.7803C427.423 29.8596 417.872 26.9 407.273 26.9V28.9ZM434.323 36.6V90H436.323V36.6H434.323ZM434.328 90.0995L435.828 105.1L437.818 104.9L436.318 89.9005L434.328 90.0995ZM436.747 104.003L426.847 104.753L426.998 106.747L436.898 105.997L436.747 104.003ZM427.905 105.564L425.355 92.0644L423.39 92.4356L425.94 105.936L427.905 105.564ZM423.502 91.7577C418.059 101.38 410.373 106.1 400.373 106.1V108.1C411.172 108.1 419.486 102.92 425.243 92.7423L423.502 91.7577ZM381.373 69C381.373 78.1232 383.296 85.2779 387.289 90.3207L388.857 89.0793C385.249 84.5221 383.373 77.8768 383.373 69H381.373ZM387.289 90.3207C391.27 95.3498 396.404 97.9 402.623 97.9V95.9C397.041 95.9 392.475 93.6502 388.857 89.0793L387.289 90.3207ZM402.623 97.9C409.018 97.9 414.349 94.729 418.594 88.6207L416.951 87.4793C412.996 93.171 408.228 95.9 402.623 95.9V97.9ZM418.598 88.6142C422.856 82.384 424.923 73.7066 424.923 62.7H422.923C422.923 73.4934 420.89 81.716 416.947 87.4858L418.598 88.6142ZM424.923 62.7V41.85H422.923V62.7H424.923ZM424.37 40.9556C419.228 38.3847 413.725 37.1 407.873 37.1V39.1C413.421 39.1 418.617 40.3153 423.475 42.7444L424.37 40.9556ZM407.873 37.1C400.169 37.1 393.788 40.1375 388.802 46.1624L390.343 47.4376C394.957 41.8625 400.777 39.1 407.873 39.1V37.1ZM388.808 46.1559C383.824 52.0736 381.373 59.7184 381.373 69H383.373C383.373 60.0816 385.721 52.9264 390.338 47.4441L388.808 46.1559Z" fill="black"/>
</g>
<defs>
<filter id="filter0_d_4_12" x="0.609375" y="0" width="440.213" height="115.1" filterUnits="userSpaceOnUse" color-interpolation-filters="sRGB">
<feFlood flood-opacity="0" result="BackgroundImageFix"/>
<feColorMatrix in="SourceAlpha" type="matrix" values="0 0 0 0 0 0 0 0 0 0 0 0 0 0 0 0 0 0 127 0" result="hardAlpha"/>
<feOffset dy="4"/>
<feGaussianBlur stdDeviation="2"/>
<feComposite in2="hardAlpha" operator="out"/>
<feColorMatrix type="matrix" values="0 0 0 0 0 0 0 0 0 0 0 0 0 0 0 0 0 0 0.25 0"/>
<feBlend mode="normal" in2="BackgroundImageFix" result="effect1_dropShadow_4_12"/>
<feBlend mode="normal" in="SourceGraphic" in2="effect1_dropShadow_4_12" result="shape"/>
</filter>
</defs>
</svg>




